<svg width="1440" height="1024" viewBox="0 0 1440 1024" fill="none" xmlns="http://www.w3.org/2000/svg">
<rect width="1440" height="1024" fill="white"/>
<path d="M144.693 527.12V496.848C144.693 493.989 144.885 490.832 145.269 487.376L116.533 527.12H144.693ZM170.101 527.12V536.272C170.101 537.125 169.824 537.872 169.269 538.512C168.714 539.109 167.925 539.408 166.901 539.408H158.453V562H144.693V539.408H105.653C104.586 539.408 103.648 539.088 102.837 538.448C102.026 537.765 101.514 536.933 101.301 535.952L99.637 527.952L143.477 469.392H158.453V527.12H170.101ZM244.415 515.728C244.415 523.792 243.54 530.811 241.791 536.784C240.084 542.715 237.695 547.621 234.623 551.504C231.594 555.387 227.988 558.288 223.807 560.208C219.668 562.085 215.188 563.024 210.367 563.024C205.546 563.024 201.066 562.085 196.927 560.208C192.831 558.288 189.268 555.387 186.239 551.504C183.21 547.621 180.842 542.715 179.135 536.784C177.428 530.811 176.575 523.792 176.575 515.728C176.575 507.621 177.428 500.603 179.135 494.672C180.842 488.741 183.21 483.835 186.239 479.952C189.268 476.069 192.831 473.189 196.927 471.312C201.066 469.392 205.546 468.432 210.367 468.432C215.188 468.432 219.668 469.392 223.807 471.312C227.988 473.189 231.594 476.069 234.623 479.952C237.695 483.835 240.084 488.741 241.791 494.672C243.54 500.603 244.415 507.621 244.415 515.728ZM228.095 515.728C228.095 509.029 227.604 503.483 226.623 499.088C225.642 494.693 224.319 491.195 222.655 488.592C221.034 485.989 219.156 484.176 217.023 483.152C214.89 482.085 212.671 481.552 210.367 481.552C208.106 481.552 205.908 482.085 203.775 483.152C201.684 484.176 199.828 485.989 198.207 488.592C196.586 491.195 195.284 494.693 194.303 499.088C193.364 503.483 192.895 509.029 192.895 515.728C192.895 522.427 193.364 527.973 194.303 532.368C195.284 536.763 196.586 540.261 198.207 542.864C199.828 545.467 201.684 547.301 203.775 548.368C205.908 549.392 208.106 549.904 210.367 549.904C212.671 549.904 214.89 549.392 217.023 548.368C219.156 547.301 221.034 545.467 222.655 542.864C224.319 540.261 225.642 536.763 226.623 532.368C227.604 527.973 228.095 522.427 228.095 515.728ZM293.193 527.12V496.848C293.193 493.989 293.385 490.832 293.769 487.376L265.033 527.12H293.193ZM318.601 527.12V536.272C318.601 537.125 318.324 537.872 317.769 538.512C317.214 539.109 316.425 539.408 315.401 539.408H306.953V562H293.193V539.408H254.153C253.086 539.408 252.148 539.088 251.337 538.448C250.526 537.765 250.014 536.933 249.801 535.952L248.137 527.952L291.977 469.392H306.953V527.12H318.601Z" fill="#0085FF"/>
<path d="M448.71 514.488C451.078 514.488 453.142 514.2 454.902 513.624C456.662 513.016 458.118 512.168 459.27 511.08C460.454 509.96 461.334 508.616 461.91 507.048C462.486 505.448 462.774 503.672 462.774 501.72C462.774 499.864 462.486 498.184 461.91 496.68C461.334 495.176 460.47 493.896 459.318 492.84C458.166 491.784 456.71 490.984 454.95 490.44C453.19 489.864 451.11 489.576 448.71 489.576H439.062V514.488H448.71ZM448.71 479.592C453.35 479.592 457.366 480.136 460.758 481.224C464.15 482.312 466.95 483.832 469.158 485.784C471.366 487.736 472.998 490.072 474.054 492.792C475.142 495.512 475.686 498.488 475.686 501.72C475.686 505.08 475.126 508.168 474.006 510.984C472.886 513.768 471.206 516.168 468.966 518.184C466.726 520.2 463.91 521.768 460.518 522.888C457.158 524.008 453.222 524.568 448.71 524.568H439.062V549H426.15V479.592H448.71ZM508.231 527.976C504.807 528.136 501.927 528.44 499.591 528.888C497.255 529.304 495.383 529.848 493.975 530.52C492.567 531.192 491.559 531.976 490.951 532.872C490.343 533.768 490.039 534.744 490.039 535.8C490.039 537.88 490.647 539.368 491.863 540.264C493.111 541.16 494.727 541.608 496.711 541.608C499.143 541.608 501.239 541.176 502.999 540.312C504.791 539.416 506.535 538.072 508.231 536.28V527.976ZM481.063 506.616C486.727 501.432 493.543 498.84 501.511 498.84C504.391 498.84 506.967 499.32 509.239 500.28C511.511 501.208 513.431 502.52 514.999 504.216C516.567 505.88 517.751 507.88 518.551 510.216C519.383 512.552 519.799 515.112 519.799 517.896V549H514.423C513.303 549 512.439 548.84 511.831 548.52C511.223 548.168 510.743 547.48 510.391 546.456L509.335 542.904C508.087 544.024 506.871 545.016 505.687 545.88C504.503 546.712 503.271 547.416 501.991 547.992C500.711 548.568 499.335 549 497.863 549.288C496.423 549.608 494.823 549.768 493.063 549.768C490.983 549.768 489.063 549.496 487.303 548.952C485.543 548.376 484.023 547.528 482.743 546.408C481.463 545.288 480.471 543.896 479.767 542.232C479.063 540.568 478.711 538.632 478.711 536.424C478.711 535.176 478.919 533.944 479.335 532.728C479.751 531.48 480.423 530.296 481.351 529.176C482.311 528.056 483.543 527 485.047 526.008C486.551 525.016 488.391 524.152 490.567 523.416C492.775 522.68 495.335 522.088 498.247 521.64C501.159 521.16 504.487 520.872 508.231 520.776V517.896C508.231 514.6 507.527 512.168 506.119 510.6C504.711 509 502.679 508.2 500.023 508.2C498.103 508.2 496.503 508.424 495.223 508.872C493.975 509.32 492.871 509.832 491.911 510.408C490.951 510.952 490.071 511.448 489.271 511.896C488.503 512.344 487.639 512.568 486.679 512.568C485.847 512.568 485.143 512.36 484.567 511.944C483.991 511.496 483.527 510.984 483.175 510.408L481.063 506.616ZM548.965 523.176C550.437 523.176 551.717 522.984 552.805 522.6C553.893 522.184 554.789 521.624 555.493 520.92C556.229 520.216 556.773 519.368 557.125 518.376C557.509 517.384 557.701 516.296 557.701 515.112C557.701 512.68 556.965 510.76 555.493 509.352C554.053 507.912 551.877 507.192 548.965 507.192C546.053 507.192 543.861 507.912 542.389 509.352C540.949 510.76 540.229 512.68 540.229 515.112C540.229 516.264 540.405 517.336 540.757 518.328C541.141 519.32 541.685 520.184 542.389 520.92C543.125 521.624 544.037 522.184 545.125 522.6C546.245 522.984 547.525 523.176 548.965 523.176ZM562.357 551.208C562.357 550.248 562.069 549.464 561.493 548.856C560.917 548.248 560.133 547.784 559.141 547.464C558.149 547.112 556.981 546.856 555.637 546.696C554.325 546.536 552.917 546.424 551.413 546.36C549.941 546.264 548.405 546.184 546.805 546.12C545.237 546.056 543.701 545.928 542.197 545.736C540.885 546.472 539.813 547.336 538.981 548.328C538.181 549.32 537.781 550.472 537.781 551.784C537.781 552.648 537.989 553.448 538.405 554.184C538.853 554.952 539.541 555.608 540.469 556.152C541.429 556.696 542.661 557.112 544.165 557.4C545.669 557.72 547.509 557.88 549.685 557.88C551.893 557.88 553.797 557.704 555.397 557.352C556.997 557.032 558.309 556.568 559.333 555.96C560.389 555.384 561.157 554.68 561.637 553.848C562.117 553.048 562.357 552.168 562.357 551.208ZM574.165 501.432V505.848C574.165 507.256 573.317 508.12 571.621 508.44L567.205 509.256C567.877 510.952 568.213 512.808 568.213 514.824C568.213 517.256 567.717 519.464 566.725 521.448C565.765 523.4 564.421 525.064 562.693 526.44C560.965 527.816 558.917 528.888 556.549 529.656C554.213 530.392 551.685 530.76 548.965 530.76C548.005 530.76 547.077 530.712 546.181 530.616C545.285 530.52 544.405 530.392 543.541 530.232C542.005 531.16 541.237 532.2 541.237 533.352C541.237 534.344 541.685 535.08 542.581 535.56C543.509 536.008 544.725 536.328 546.229 536.52C547.733 536.712 549.445 536.84 551.365 536.904C553.285 536.936 555.253 537.032 557.269 537.192C559.285 537.352 561.253 537.64 563.173 538.056C565.093 538.44 566.805 539.064 568.309 539.928C569.813 540.792 571.013 541.976 571.909 543.48C572.837 544.952 573.301 546.856 573.301 549.192C573.301 551.368 572.757 553.48 571.669 555.528C570.613 557.576 569.061 559.4 567.013 561C564.997 562.6 562.501 563.88 559.525 564.84C556.581 565.832 553.221 566.328 549.445 566.328C545.733 566.328 542.501 565.96 539.749 565.224C536.997 564.52 534.709 563.56 532.885 562.344C531.061 561.16 529.701 559.784 528.805 558.216C527.909 556.648 527.461 555.016 527.461 553.32C527.461 551.016 528.149 549.096 529.525 547.56C530.933 545.992 532.853 544.744 535.285 543.816C533.973 543.144 532.933 542.248 532.165 541.128C531.397 540.008 531.013 538.536 531.013 536.712C531.013 535.976 531.141 535.224 531.397 534.456C531.685 533.656 532.085 532.872 532.597 532.104C533.141 531.336 533.813 530.616 534.613 529.944C535.413 529.24 536.357 528.616 537.445 528.072C534.949 526.728 532.981 524.936 531.541 522.696C530.133 520.456 529.429 517.832 529.429 514.824C529.429 512.392 529.909 510.2 530.869 508.248C531.861 506.264 533.221 504.584 534.949 503.208C536.709 501.8 538.773 500.728 541.141 499.992C543.541 499.256 546.149 498.888 548.965 498.888C551.077 498.888 553.061 499.112 554.917 499.56C556.773 499.976 558.469 500.6 560.005 501.432H574.165ZM593.972 499.752V549H582.068V499.752H593.972ZM595.604 485.4C595.604 486.424 595.396 487.384 594.98 488.28C594.564 489.176 594.004 489.96 593.3 490.632C592.628 491.304 591.828 491.848 590.9 492.264C589.972 492.648 588.98 492.84 587.924 492.84C586.9 492.84 585.924 492.648 584.996 492.264C584.1 491.848 583.316 491.304 582.644 490.632C581.972 489.96 581.428 489.176 581.012 488.28C580.628 487.384 580.436 486.424 580.436 485.4C580.436 484.344 580.628 483.352 581.012 482.424C581.428 481.496 581.972 480.696 582.644 480.024C583.316 479.352 584.1 478.824 584.996 478.44C585.924 478.024 586.9 477.816 587.924 477.816C588.98 477.816 589.972 478.024 590.9 478.44C591.828 478.824 592.628 479.352 593.3 480.024C594.004 480.696 594.564 481.496 594.98 482.424C595.396 483.352 595.604 484.344 595.604 485.4ZM617.147 505.8C618.139 504.808 619.179 503.896 620.267 503.064C621.387 502.2 622.555 501.48 623.771 500.904C625.019 500.296 626.347 499.832 627.755 499.512C629.163 499.16 630.699 498.984 632.363 498.984C635.051 498.984 637.435 499.448 639.515 500.376C641.595 501.272 643.323 502.552 644.699 504.216C646.107 505.848 647.163 507.816 647.867 510.12C648.603 512.392 648.971 514.904 648.971 517.656V549H637.115V517.656C637.115 514.648 636.427 512.328 635.051 510.696C633.675 509.032 631.579 508.2 628.763 508.2C626.715 508.2 624.795 508.664 623.003 509.592C621.211 510.52 619.515 511.784 617.915 513.384V549H606.059V499.752H613.307C614.843 499.752 615.851 500.472 616.331 501.912L617.147 505.8ZM686.263 527.976C682.839 528.136 679.959 528.44 677.623 528.888C675.287 529.304 673.415 529.848 672.007 530.52C670.599 531.192 669.591 531.976 668.983 532.872C668.375 533.768 668.071 534.744 668.071 535.8C668.071 537.88 668.679 539.368 669.895 540.264C671.143 541.16 672.759 541.608 674.743 541.608C677.175 541.608 679.271 541.176 681.031 540.312C682.823 539.416 684.567 538.072 686.263 536.28V527.976ZM659.095 506.616C664.759 501.432 671.575 498.84 679.543 498.84C682.423 498.84 684.999 499.32 687.271 500.28C689.543 501.208 691.463 502.52 693.031 504.216C694.599 505.88 695.783 507.88 696.583 510.216C697.415 512.552 697.831 515.112 697.831 517.896V549H692.455C691.335 549 690.471 548.84 689.863 548.52C689.255 548.168 688.775 547.48 688.423 546.456L687.367 542.904C686.119 544.024 684.903 545.016 683.719 545.88C682.535 546.712 681.303 547.416 680.023 547.992C678.743 548.568 677.367 549 675.895 549.288C674.455 549.608 672.855 549.768 671.095 549.768C669.015 549.768 667.095 549.496 665.335 548.952C663.575 548.376 662.055 547.528 660.775 546.408C659.495 545.288 658.503 543.896 657.799 542.232C657.095 540.568 656.743 538.632 656.743 536.424C656.743 535.176 656.951 533.944 657.367 532.728C657.783 531.48 658.455 530.296 659.383 529.176C660.343 528.056 661.575 527 663.079 526.008C664.583 525.016 666.423 524.152 668.599 523.416C670.807 522.68 673.367 522.088 676.279 521.64C679.191 521.16 682.519 520.872 686.263 520.776V517.896C686.263 514.6 685.559 512.168 684.151 510.6C682.743 509 680.711 508.2 678.055 508.2C676.135 508.2 674.535 508.424 673.255 508.872C672.007 509.32 670.903 509.832 669.943 510.408C668.983 510.952 668.103 511.448 667.303 511.896C666.535 512.344 665.671 512.568 664.711 512.568C663.879 512.568 663.175 512.36 662.599 511.944C662.023 511.496 661.559 510.984 661.207 510.408L659.095 506.616ZM743.428 505.8C744.42 504.808 745.46 503.896 746.548 503.064C747.668 502.2 748.836 501.48 750.052 500.904C751.3 500.296 752.628 499.832 754.036 499.512C755.444 499.16 756.98 498.984 758.644 498.984C761.332 498.984 763.716 499.448 765.796 500.376C767.876 501.272 769.604 502.552 770.98 504.216C772.388 505.848 773.444 507.816 774.148 510.12C774.884 512.392 775.252 514.904 775.252 517.656V549H763.396V517.656C763.396 514.648 762.708 512.328 761.332 510.696C759.956 509.032 757.86 508.2 755.044 508.2C752.996 508.2 751.076 508.664 749.284 509.592C747.492 510.52 745.796 511.784 744.196 513.384V549H732.34V499.752H739.588C741.124 499.752 742.132 500.472 742.612 501.912L743.428 505.8ZM808.32 498.984C811.968 498.984 815.28 499.576 818.256 500.76C821.264 501.944 823.824 503.624 825.936 505.8C828.08 507.976 829.728 510.632 830.88 513.768C832.032 516.904 832.608 520.408 832.608 524.28C832.608 528.184 832.032 531.704 830.88 534.84C829.728 537.976 828.08 540.648 825.936 542.856C823.824 545.064 821.264 546.76 818.256 547.944C815.28 549.128 811.968 549.72 808.32 549.72C804.64 549.72 801.296 549.128 798.288 547.944C795.28 546.76 792.704 545.064 790.56 542.856C788.448 540.648 786.8 537.976 785.616 534.84C784.464 531.704 783.888 528.184 783.888 524.28C783.888 520.408 784.464 516.904 785.616 513.768C786.8 510.632 788.448 507.976 790.56 505.8C792.704 503.624 795.28 501.944 798.288 500.76C801.296 499.576 804.64 498.984 808.32 498.984ZM808.32 540.6C812.416 540.6 815.44 539.224 817.392 536.472C819.376 533.72 820.368 529.688 820.368 524.376C820.368 519.064 819.376 515.016 817.392 512.232C815.44 509.448 812.416 508.056 808.32 508.056C804.16 508.056 801.072 509.464 799.056 512.28C797.072 515.064 796.08 519.096 796.08 524.376C796.08 529.656 797.072 533.688 799.056 536.472C801.072 539.224 804.16 540.6 808.32 540.6ZM896.725 518.712C896.725 517.176 896.501 515.736 896.053 514.392C895.637 513.016 894.997 511.816 894.133 510.792C893.269 509.768 892.165 508.968 890.821 508.392C889.509 507.784 887.973 507.48 886.213 507.48C882.789 507.48 880.085 508.456 878.101 510.408C876.149 512.36 874.901 515.128 874.357 518.712H896.725ZM874.117 525.864C874.309 528.392 874.757 530.584 875.461 532.44C876.165 534.264 877.093 535.784 878.245 537C879.397 538.184 880.757 539.08 882.325 539.688C883.925 540.264 885.685 540.552 887.605 540.552C889.525 540.552 891.173 540.328 892.549 539.88C893.957 539.432 895.173 538.936 896.197 538.392C897.253 537.848 898.165 537.352 898.933 536.904C899.733 536.456 900.501 536.232 901.237 536.232C902.229 536.232 902.965 536.6 903.445 537.336L906.853 541.656C905.541 543.192 904.069 544.488 902.437 545.544C900.805 546.568 899.093 547.4 897.301 548.04C895.541 548.648 893.733 549.08 891.877 549.336C890.053 549.592 888.277 549.72 886.549 549.72C883.125 549.72 879.941 549.16 876.997 548.04C874.053 546.888 871.493 545.208 869.317 543C867.141 540.76 865.429 538.008 864.181 534.744C862.933 531.448 862.309 527.64 862.309 523.32C862.309 519.96 862.853 516.808 863.941 513.864C865.029 510.888 866.581 508.312 868.597 506.136C870.645 503.928 873.125 502.184 876.037 500.904C878.981 499.624 882.293 498.984 885.973 498.984C889.077 498.984 891.941 499.48 894.565 500.472C897.189 501.464 899.445 502.92 901.333 504.84C903.221 506.728 904.693 509.064 905.749 511.848C906.837 514.6 907.381 517.752 907.381 521.304C907.381 523.096 907.189 524.312 906.805 524.952C906.421 525.56 905.685 525.864 904.597 525.864H874.117ZM927.366 505.8C928.358 504.808 929.398 503.896 930.486 503.064C931.606 502.2 932.774 501.48 933.99 500.904C935.238 500.296 936.566 499.832 937.974 499.512C939.382 499.16 940.918 498.984 942.582 498.984C945.27 498.984 947.654 499.448 949.734 500.376C951.814 501.272 953.542 502.552 954.918 504.216C956.326 505.848 957.382 507.816 958.086 510.12C958.822 512.392 959.19 514.904 959.19 517.656V549H947.334V517.656C947.334 514.648 946.646 512.328 945.27 510.696C943.894 509.032 941.798 508.2 938.982 508.2C936.934 508.2 935.014 508.664 933.222 509.592C931.43 510.52 929.734 511.784 928.134 513.384V549H916.278V499.752H923.526C925.062 499.752 926.07 500.472 926.55 501.912L927.366 505.8ZM1005.75 510.168C1005.39 510.616 1005.04 510.968 1004.69 511.224C1004.37 511.48 1003.89 511.608 1003.25 511.608C1002.64 511.608 1002.05 511.432 1001.47 511.08C1000.9 510.696 1000.21 510.28 999.409 509.832C998.609 509.352 997.649 508.936 996.529 508.584C995.441 508.2 994.081 508.008 992.449 508.008C990.369 508.008 988.545 508.392 986.977 509.16C985.409 509.896 984.097 510.968 983.041 512.376C982.017 513.784 981.249 515.496 980.737 517.512C980.225 519.496 979.969 521.752 979.969 524.28C979.969 526.904 980.241 529.24 980.785 531.288C981.361 533.336 982.177 535.064 983.233 536.472C984.289 537.848 985.569 538.904 987.073 539.64C988.577 540.344 990.273 540.696 992.161 540.696C994.049 540.696 995.569 540.472 996.721 540.024C997.905 539.544 998.897 539.032 999.697 538.488C1000.5 537.912 1001.19 537.4 1001.76 536.952C1002.37 536.472 1003.04 536.232 1003.78 536.232C1004.74 536.232 1005.46 536.6 1005.94 537.336L1009.35 541.656C1008.03 543.192 1006.61 544.488 1005.07 545.544C1003.54 546.568 1001.94 547.4 1000.27 548.04C998.641 548.648 996.945 549.08 995.185 549.336C993.457 549.592 991.729 549.72 990.001 549.72C986.961 549.72 984.097 549.16 981.409 548.04C978.721 546.888 976.369 545.224 974.353 543.048C972.337 540.872 970.737 538.216 969.553 535.08C968.401 531.912 967.825 528.312 967.825 524.28C967.825 520.664 968.337 517.32 969.361 514.248C970.417 511.144 971.953 508.472 973.969 506.232C975.985 503.96 978.481 502.184 981.457 500.904C984.433 499.624 987.857 498.984 991.729 498.984C995.409 498.984 998.625 499.576 1001.38 500.76C1004.16 501.944 1006.66 503.64 1008.87 505.848L1005.75 510.168ZM1037.73 498.984C1041.37 498.984 1044.69 499.576 1047.66 500.76C1050.67 501.944 1053.23 503.624 1055.34 505.8C1057.49 507.976 1059.13 510.632 1060.29 513.768C1061.44 516.904 1062.01 520.408 1062.01 524.28C1062.01 528.184 1061.44 531.704 1060.29 534.84C1059.13 537.976 1057.49 540.648 1055.34 542.856C1053.23 545.064 1050.67 546.76 1047.66 547.944C1044.69 549.128 1041.37 549.72 1037.73 549.72C1034.05 549.72 1030.7 549.128 1027.69 547.944C1024.69 546.76 1022.11 545.064 1019.97 542.856C1017.85 540.648 1016.21 537.976 1015.02 534.84C1013.87 531.704 1013.29 528.184 1013.29 524.28C1013.29 520.408 1013.87 516.904 1015.02 513.768C1016.21 510.632 1017.85 507.976 1019.97 505.8C1022.11 503.624 1024.69 501.944 1027.69 500.76C1030.7 499.576 1034.05 498.984 1037.73 498.984ZM1037.73 540.6C1041.82 540.6 1044.85 539.224 1046.8 536.472C1048.78 533.72 1049.77 529.688 1049.77 524.376C1049.77 519.064 1048.78 515.016 1046.8 512.232C1044.85 509.448 1041.82 508.056 1037.73 508.056C1033.57 508.056 1030.48 509.464 1028.46 512.28C1026.48 515.064 1025.49 519.096 1025.49 524.376C1025.49 529.656 1026.48 533.688 1028.46 536.472C1030.48 539.224 1033.57 540.6 1037.73 540.6ZM1082.15 505.8C1083.14 504.808 1084.18 503.896 1085.27 503.064C1086.39 502.2 1087.56 501.48 1088.77 500.904C1090.02 500.296 1091.35 499.832 1092.76 499.512C1094.16 499.16 1095.7 498.984 1097.36 498.984C1100.05 498.984 1102.44 499.448 1104.52 500.376C1106.6 501.272 1108.32 502.552 1109.7 504.216C1111.11 505.848 1112.16 507.816 1112.87 510.12C1113.6 512.392 1113.97 514.904 1113.97 517.656V549H1102.12V517.656C1102.12 514.648 1101.43 512.328 1100.05 510.696C1098.68 509.032 1096.58 508.2 1093.76 508.2C1091.72 508.2 1089.8 508.664 1088 509.592C1086.21 510.52 1084.52 511.784 1082.92 513.384V549H1071.06V499.752H1078.31C1079.84 499.752 1080.85 500.472 1081.33 501.912L1082.15 505.8ZM1141.01 549.768C1136.72 549.768 1133.42 548.568 1131.12 546.168C1128.85 543.736 1127.71 540.392 1127.71 536.136V508.632H1122.67C1122.03 508.632 1121.49 508.424 1121.04 508.008C1120.59 507.592 1120.37 506.968 1120.37 506.136V501.432L1128.29 500.136L1130.78 486.696C1130.94 486.056 1131.25 485.56 1131.69 485.208C1132.14 484.856 1132.72 484.68 1133.42 484.68H1139.57V500.184H1152.72V508.632H1139.57V535.32C1139.57 536.856 1139.93 538.056 1140.67 538.92C1141.44 539.784 1142.48 540.216 1143.79 540.216C1144.53 540.216 1145.13 540.136 1145.61 539.976C1146.13 539.784 1146.56 539.592 1146.91 539.4C1147.29 539.208 1147.63 539.032 1147.92 538.872C1148.21 538.68 1148.49 538.584 1148.78 538.584C1149.13 538.584 1149.42 538.68 1149.65 538.872C1149.87 539.032 1150.11 539.288 1150.37 539.64L1153.92 545.4C1152.19 546.84 1150.21 547.928 1147.97 548.664C1145.73 549.4 1143.41 549.768 1141.01 549.768ZM1171.49 508.296C1173.03 505.352 1174.85 503.048 1176.97 501.384C1179.08 499.688 1181.57 498.84 1184.45 498.84C1186.73 498.84 1188.55 499.336 1189.93 500.328L1189.16 509.208C1189 509.784 1188.76 510.2 1188.44 510.456C1188.15 510.68 1187.75 510.792 1187.24 510.792C1186.76 510.792 1186.04 510.712 1185.08 510.552C1184.15 510.392 1183.24 510.312 1182.34 510.312C1181.03 510.312 1179.86 510.504 1178.84 510.888C1177.81 511.272 1176.89 511.832 1176.05 512.568C1175.25 513.272 1174.53 514.136 1173.89 515.16C1173.29 516.184 1172.71 517.352 1172.17 518.664V549H1160.31V499.752H1167.27C1168.49 499.752 1169.33 499.976 1169.81 500.424C1170.29 500.84 1170.61 501.608 1170.77 502.728L1171.49 508.296ZM1221.48 527.976C1218.06 528.136 1215.18 528.44 1212.84 528.888C1210.51 529.304 1208.63 529.848 1207.23 530.52C1205.82 531.192 1204.81 531.976 1204.2 532.872C1203.59 533.768 1203.29 534.744 1203.29 535.8C1203.29 537.88 1203.9 539.368 1205.11 540.264C1206.36 541.16 1207.98 541.608 1209.96 541.608C1212.39 541.608 1214.49 541.176 1216.25 540.312C1218.04 539.416 1219.79 538.072 1221.48 536.28V527.976ZM1194.31 506.616C1199.98 501.432 1206.79 498.84 1214.76 498.84C1217.64 498.84 1220.22 499.32 1222.49 500.28C1224.76 501.208 1226.68 502.52 1228.25 504.216C1229.82 505.88 1231 507.88 1231.8 510.216C1232.63 512.552 1233.05 515.112 1233.05 517.896V549H1227.67C1226.55 549 1225.69 548.84 1225.08 548.52C1224.47 548.168 1223.99 547.48 1223.64 546.456L1222.59 542.904C1221.34 544.024 1220.12 545.016 1218.94 545.88C1217.75 546.712 1216.52 547.416 1215.24 547.992C1213.96 548.568 1212.59 549 1211.11 549.288C1209.67 549.608 1208.07 549.768 1206.31 549.768C1204.23 549.768 1202.31 549.496 1200.55 548.952C1198.79 548.376 1197.27 547.528 1195.99 546.408C1194.71 545.288 1193.72 543.896 1193.02 542.232C1192.31 540.568 1191.96 538.632 1191.96 536.424C1191.96 535.176 1192.17 533.944 1192.59 532.728C1193 531.48 1193.67 530.296 1194.6 529.176C1195.56 528.056 1196.79 527 1198.3 526.008C1199.8 525.016 1201.64 524.152 1203.82 523.416C1206.03 522.68 1208.59 522.088 1211.5 521.64C1214.41 521.16 1217.74 520.872 1221.48 520.776V517.896C1221.48 514.6 1220.78 512.168 1219.37 510.6C1217.96 509 1215.93 508.2 1213.27 508.2C1211.35 508.2 1209.75 508.424 1208.47 508.872C1207.23 509.32 1206.12 509.832 1205.16 510.408C1204.2 510.952 1203.32 511.448 1202.52 511.896C1201.75 512.344 1200.89 512.568 1199.93 512.568C1199.1 512.568 1198.39 512.36 1197.82 511.944C1197.24 511.496 1196.78 510.984 1196.43 510.408L1194.31 506.616ZM1275.13 512.328C1273.78 510.696 1272.31 509.544 1270.71 508.872C1269.14 508.2 1267.45 507.864 1265.62 507.864C1263.83 507.864 1262.22 508.2 1260.78 508.872C1259.34 509.544 1258.1 510.568 1257.08 511.944C1256.06 513.288 1255.27 515.016 1254.73 517.128C1254.18 519.208 1253.91 521.672 1253.91 524.52C1253.91 527.4 1254.14 529.848 1254.58 531.864C1255.06 533.848 1255.74 535.48 1256.6 536.76C1257.46 538.008 1258.52 538.92 1259.77 539.496C1261.02 540.04 1262.41 540.312 1263.94 540.312C1266.41 540.312 1268.5 539.8 1270.23 538.776C1271.96 537.752 1273.59 536.296 1275.13 534.408V512.328ZM1286.98 477.672V549H1279.74C1278.17 549 1277.18 548.28 1276.76 546.84L1275.75 542.088C1273.77 544.36 1271.48 546.2 1268.89 547.608C1266.33 549.016 1263.34 549.72 1259.91 549.72C1257.22 549.72 1254.76 549.16 1252.52 548.04C1250.28 546.92 1248.34 545.304 1246.71 543.192C1245.11 541.048 1243.86 538.408 1242.97 535.272C1242.1 532.136 1241.67 528.552 1241.67 524.52C1241.67 520.872 1242.17 517.48 1243.16 514.344C1244.15 511.208 1245.58 508.488 1247.43 506.184C1249.29 503.88 1251.51 502.088 1254.1 500.808C1256.7 499.496 1259.61 498.84 1262.84 498.84C1265.59 498.84 1267.94 499.272 1269.9 500.136C1271.85 501 1273.59 502.168 1275.13 503.64V477.672H1286.98ZM1324.7 527.976C1321.28 528.136 1318.4 528.44 1316.06 528.888C1313.72 529.304 1311.85 529.848 1310.44 530.52C1309.04 531.192 1308.03 531.976 1307.42 532.872C1306.81 533.768 1306.51 534.744 1306.51 535.8C1306.51 537.88 1307.12 539.368 1308.33 540.264C1309.58 541.16 1311.2 541.608 1313.18 541.608C1315.61 541.608 1317.71 541.176 1319.47 540.312C1321.26 539.416 1323 538.072 1324.7 536.28V527.976ZM1297.53 506.616C1303.2 501.432 1310.01 498.84 1317.98 498.84C1320.86 498.84 1323.44 499.32 1325.71 500.28C1327.98 501.208 1329.9 502.52 1331.47 504.216C1333.04 505.88 1334.22 507.88 1335.02 510.216C1335.85 512.552 1336.27 515.112 1336.27 517.896V549H1330.89C1329.77 549 1328.91 548.84 1328.3 548.52C1327.69 548.168 1327.21 547.48 1326.86 546.456L1325.8 542.904C1324.56 544.024 1323.34 545.016 1322.16 545.88C1320.97 546.712 1319.74 547.416 1318.46 547.992C1317.18 548.568 1315.8 549 1314.33 549.288C1312.89 549.608 1311.29 549.768 1309.53 549.768C1307.45 549.768 1305.53 549.496 1303.77 548.952C1302.01 548.376 1300.49 547.528 1299.21 546.408C1297.93 545.288 1296.94 543.896 1296.24 542.232C1295.53 540.568 1295.18 538.632 1295.18 536.424C1295.18 535.176 1295.39 533.944 1295.8 532.728C1296.22 531.48 1296.89 530.296 1297.82 529.176C1298.78 528.056 1300.01 527 1301.52 526.008C1303.02 525.016 1304.86 524.152 1307.04 523.416C1309.24 522.68 1311.8 522.088 1314.72 521.64C1317.63 521.16 1320.96 520.872 1324.7 520.776V517.896C1324.7 514.6 1324 512.168 1322.59 510.6C1321.18 509 1319.15 508.2 1316.49 508.2C1314.57 508.2 1312.97 508.424 1311.69 508.872C1310.44 509.32 1309.34 509.832 1308.38 510.408C1307.42 510.952 1306.54 511.448 1305.74 511.896C1304.97 512.344 1304.11 512.568 1303.15 512.568C1302.32 512.568 1301.61 512.36 1301.04 511.944C1300.46 511.496 1300 510.984 1299.64 510.408L1297.53 506.616Z" fill="black"/>
<path d="M450.717 590.5C451.677 590.5 452.517 590.386 453.237 590.158C453.957 589.918 454.557 589.588 455.037 589.168C455.517 588.748 455.877 588.25 456.117 587.674C456.357 587.086 456.477 586.438 456.477 585.73C456.477 584.314 456.009 583.234 455.073 582.49C454.137 581.746 452.721 581.374 450.825 581.374H447.405V590.5H450.717ZM462.921 604H459.159C458.415 604 457.875 603.712 457.539 603.136L451.491 594.406C451.287 594.106 451.065 593.89 450.825 593.758C450.585 593.626 450.225 593.56 449.745 593.56H447.405V604H443.193V578.08H450.825C452.529 578.08 453.993 578.254 455.217 578.602C456.453 578.95 457.467 579.448 458.259 580.096C459.051 580.732 459.633 581.5 460.005 582.4C460.389 583.3 460.581 584.302 460.581 585.406C460.581 586.306 460.443 587.146 460.167 587.926C459.903 588.706 459.513 589.414 458.997 590.05C458.493 590.686 457.869 591.238 457.125 591.706C456.381 592.174 455.535 592.54 454.587 592.804C455.103 593.116 455.547 593.554 455.919 594.118L462.921 604ZM476.171 592.75C476.171 592.102 476.075 591.502 475.883 590.95C475.703 590.386 475.433 589.9 475.073 589.492C474.713 589.072 474.263 588.748 473.723 588.52C473.195 588.28 472.583 588.16 471.887 588.16C470.483 588.16 469.379 588.562 468.575 589.366C467.771 590.17 467.261 591.298 467.045 592.75H476.171ZM466.937 595.126C466.985 596.17 467.147 597.076 467.423 597.844C467.699 598.6 468.065 599.23 468.521 599.734C468.989 600.238 469.541 600.616 470.177 600.868C470.825 601.108 471.545 601.228 472.337 601.228C473.093 601.228 473.747 601.144 474.299 600.976C474.851 600.796 475.331 600.604 475.739 600.4C476.147 600.184 476.495 599.992 476.783 599.824C477.071 599.644 477.335 599.554 477.575 599.554C477.887 599.554 478.127 599.674 478.295 599.914L479.393 601.336C478.937 601.876 478.421 602.332 477.845 602.704C477.269 603.076 476.657 603.382 476.009 603.622C475.361 603.85 474.695 604.012 474.011 604.108C473.327 604.216 472.661 604.27 472.013 604.27C470.741 604.27 469.559 604.06 468.467 603.64C467.387 603.208 466.445 602.578 465.641 601.75C464.849 600.922 464.225 599.896 463.769 598.672C463.325 597.448 463.103 596.038 463.103 594.442C463.103 593.17 463.301 591.982 463.697 590.878C464.105 589.774 464.681 588.814 465.425 587.998C466.181 587.182 467.093 586.54 468.161 586.072C469.241 585.592 470.459 585.352 471.815 585.352C472.943 585.352 473.987 585.538 474.947 585.91C475.907 586.27 476.735 586.804 477.431 587.512C478.127 588.22 478.667 589.09 479.051 590.122C479.447 591.142 479.645 592.306 479.645 593.614C479.645 594.214 479.579 594.616 479.447 594.82C479.315 595.024 479.075 595.126 478.727 595.126H466.937ZM498.997 585.64L491.617 604H488.125L480.745 585.64H483.931C484.231 585.64 484.477 585.718 484.669 585.874C484.873 586.018 485.005 586.192 485.065 586.396L489.133 597.088C489.301 597.592 489.451 598.09 489.583 598.582C489.715 599.074 489.829 599.572 489.925 600.076C490.021 599.572 490.135 599.08 490.267 598.6C490.411 598.108 490.567 597.604 490.735 597.088L494.875 586.396C494.947 586.18 495.079 586 495.271 585.856C495.463 585.712 495.697 585.64 495.973 585.64H498.997ZM505.673 585.64V604H501.803V585.64H505.673ZM506.321 580.096C506.321 580.444 506.249 580.774 506.105 581.086C505.973 581.398 505.787 581.674 505.547 581.914C505.307 582.142 505.025 582.328 504.701 582.472C504.389 582.604 504.053 582.67 503.693 582.67C503.345 582.67 503.015 582.604 502.703 582.472C502.403 582.328 502.139 582.142 501.911 581.914C501.683 581.674 501.497 581.398 501.353 581.086C501.221 580.774 501.155 580.444 501.155 580.096C501.155 579.736 501.221 579.4 501.353 579.088C501.497 578.776 501.683 578.506 501.911 578.278C502.139 578.038 502.403 577.852 502.703 577.72C503.015 577.576 503.345 577.504 503.693 577.504C504.053 577.504 504.389 577.576 504.701 577.72C505.025 577.852 505.307 578.038 505.547 578.278C505.787 578.506 505.973 578.776 506.105 579.088C506.249 579.4 506.321 579.736 506.321 580.096ZM521.498 588.97C521.402 589.138 521.294 589.258 521.174 589.33C521.054 589.402 520.904 589.438 520.724 589.438C520.52 589.438 520.298 589.378 520.058 589.258C519.818 589.126 519.536 588.982 519.212 588.826C518.888 588.67 518.504 588.532 518.06 588.412C517.628 588.28 517.118 588.214 516.53 588.214C516.05 588.214 515.612 588.274 515.216 588.394C514.832 588.502 514.502 588.664 514.226 588.88C513.962 589.084 513.758 589.33 513.614 589.618C513.47 589.894 513.398 590.194 513.398 590.518C513.398 590.95 513.53 591.31 513.794 591.598C514.058 591.886 514.406 592.138 514.838 592.354C515.27 592.558 515.762 592.744 516.314 592.912C516.866 593.08 517.43 593.26 518.006 593.452C518.582 593.644 519.146 593.866 519.698 594.118C520.25 594.37 520.742 594.682 521.174 595.054C521.606 595.414 521.954 595.858 522.218 596.386C522.482 596.902 522.614 597.532 522.614 598.276C522.614 599.14 522.458 599.938 522.146 600.67C521.834 601.402 521.378 602.038 520.778 602.578C520.178 603.118 519.428 603.538 518.528 603.838C517.64 604.138 516.62 604.288 515.468 604.288C514.832 604.288 514.214 604.228 513.614 604.108C513.026 604 512.462 603.85 511.922 603.658C511.394 603.454 510.896 603.214 510.428 602.938C509.972 602.662 509.564 602.362 509.204 602.038L510.104 600.562C510.212 600.382 510.344 600.244 510.5 600.148C510.668 600.04 510.872 599.986 511.112 599.986C511.364 599.986 511.61 600.07 511.85 600.238C512.102 600.394 512.39 600.568 512.714 600.76C513.05 600.952 513.452 601.132 513.92 601.3C514.388 601.456 514.97 601.534 515.666 601.534C516.242 601.534 516.74 601.468 517.16 601.336C517.58 601.192 517.928 601 518.204 600.76C518.48 600.52 518.684 600.25 518.816 599.95C518.948 599.638 519.014 599.308 519.014 598.96C519.014 598.492 518.882 598.108 518.618 597.808C518.354 597.508 518 597.25 517.556 597.034C517.124 596.818 516.626 596.626 516.062 596.458C515.51 596.29 514.946 596.11 514.37 595.918C513.794 595.726 513.224 595.504 512.66 595.252C512.108 595 511.61 594.682 511.166 594.298C510.734 593.902 510.386 593.428 510.122 592.876C509.858 592.312 509.726 591.628 509.726 590.824C509.726 590.092 509.87 589.396 510.158 588.736C510.458 588.076 510.89 587.494 511.454 586.99C512.03 586.486 512.732 586.09 513.56 585.802C514.4 585.502 515.366 585.352 516.458 585.352C517.694 585.352 518.816 585.55 519.824 585.946C520.832 586.342 521.678 586.882 522.362 587.566L521.498 588.97ZM538.293 592.75C538.293 592.102 538.197 591.502 538.005 590.95C537.825 590.386 537.555 589.9 537.195 589.492C536.835 589.072 536.385 588.748 535.845 588.52C535.317 588.28 534.705 588.16 534.009 588.16C532.605 588.16 531.501 588.562 530.697 589.366C529.893 590.17 529.383 591.298 529.167 592.75H538.293ZM529.059 595.126C529.107 596.17 529.269 597.076 529.545 597.844C529.821 598.6 530.187 599.23 530.643 599.734C531.111 600.238 531.663 600.616 532.299 600.868C532.947 601.108 533.667 601.228 534.459 601.228C535.215 601.228 535.869 601.144 536.421 600.976C536.973 600.796 537.453 600.604 537.861 600.4C538.269 600.184 538.617 599.992 538.905 599.824C539.193 599.644 539.457 599.554 539.697 599.554C540.009 599.554 540.249 599.674 540.417 599.914L541.515 601.336C541.059 601.876 540.543 602.332 539.967 602.704C539.391 603.076 538.779 603.382 538.131 603.622C537.483 603.85 536.817 604.012 536.133 604.108C535.449 604.216 534.783 604.27 534.135 604.27C532.863 604.27 531.681 604.06 530.589 603.64C529.509 603.208 528.567 602.578 527.763 601.75C526.971 600.922 526.347 599.896 525.891 598.672C525.447 597.448 525.225 596.038 525.225 594.442C525.225 593.17 525.423 591.982 525.819 590.878C526.227 589.774 526.803 588.814 527.547 587.998C528.303 587.182 529.215 586.54 530.283 586.072C531.363 585.592 532.581 585.352 533.937 585.352C535.065 585.352 536.109 585.538 537.069 585.91C538.029 586.27 538.857 586.804 539.553 587.512C540.249 588.22 540.789 589.09 541.173 590.122C541.569 591.142 541.767 592.306 541.767 593.614C541.767 594.214 541.701 594.616 541.569 594.82C541.437 595.024 541.197 595.126 540.849 595.126H529.059ZM558.282 577.36V604H554.412V577.36H558.282ZM572.869 595.972C571.489 596.02 570.325 596.134 569.377 596.314C568.429 596.482 567.661 596.704 567.073 596.98C566.485 597.244 566.059 597.562 565.795 597.934C565.543 598.306 565.417 598.714 565.417 599.158C565.417 599.59 565.483 599.962 565.615 600.274C565.759 600.574 565.951 600.826 566.191 601.03C566.443 601.222 566.731 601.366 567.055 601.462C567.391 601.546 567.757 601.588 568.153 601.588C569.161 601.588 570.025 601.402 570.745 601.03C571.477 600.646 572.185 600.094 572.869 599.374V595.972ZM562.609 588.196C564.685 586.264 567.157 585.298 570.025 585.298C571.081 585.298 572.017 585.472 572.833 585.82C573.661 586.156 574.351 586.636 574.903 587.26C575.467 587.884 575.893 588.628 576.181 589.492C576.481 590.344 576.631 591.292 576.631 592.336V604H574.903C574.531 604 574.249 603.946 574.057 603.838C573.865 603.718 573.703 603.484 573.571 603.136L573.193 601.642C572.725 602.062 572.263 602.44 571.807 602.776C571.351 603.1 570.877 603.376 570.385 603.604C569.905 603.832 569.383 604 568.819 604.108C568.267 604.228 567.655 604.288 566.983 604.288C566.239 604.288 565.543 604.186 564.895 603.982C564.259 603.778 563.707 603.472 563.239 603.064C562.771 602.644 562.399 602.128 562.123 601.516C561.859 600.904 561.727 600.184 561.727 599.356C561.727 598.648 561.913 597.958 562.285 597.286C562.669 596.614 563.293 596.014 564.157 595.486C565.033 594.946 566.179 594.502 567.595 594.154C569.023 593.806 570.781 593.608 572.869 593.56V592.336C572.869 591.016 572.587 590.032 572.023 589.384C571.459 588.736 570.631 588.412 569.539 588.412C568.795 588.412 568.171 588.508 567.667 588.7C567.163 588.88 566.725 589.078 566.353 589.294C565.981 589.51 565.651 589.714 565.363 589.906C565.075 590.086 564.769 590.176 564.445 590.176C564.181 590.176 563.953 590.11 563.761 589.978C563.581 589.834 563.431 589.66 563.311 589.456L562.609 588.196ZM601.073 600.598C602.069 600.598 602.957 600.43 603.737 600.094C604.529 599.758 605.195 599.29 605.735 598.69C606.287 598.09 606.707 597.37 606.995 596.53C607.283 595.678 607.427 594.736 607.427 593.704V578.08H611.621V593.704C611.621 595.228 611.375 596.638 610.883 597.934C610.403 599.23 609.707 600.352 608.795 601.3C607.883 602.236 606.773 602.974 605.465 603.514C604.169 604.042 602.705 604.306 601.073 604.306C599.441 604.306 597.971 604.042 596.663 603.514C595.367 602.974 594.263 602.236 593.351 601.3C592.439 600.352 591.737 599.23 591.245 597.934C590.765 596.638 590.525 595.228 590.525 593.704V578.08H594.737V593.686C594.737 594.718 594.881 595.66 595.169 596.512C595.457 597.352 595.871 598.078 596.411 598.69C596.951 599.29 597.611 599.758 598.391 600.094C599.183 600.43 600.077 600.598 601.073 600.598ZM624.987 590.5C625.947 590.5 626.787 590.386 627.507 590.158C628.227 589.918 628.827 589.588 629.307 589.168C629.787 588.748 630.147 588.25 630.387 587.674C630.627 587.086 630.747 586.438 630.747 585.73C630.747 584.314 630.279 583.234 629.343 582.49C628.407 581.746 626.991 581.374 625.095 581.374H621.675V590.5H624.987ZM637.191 604H633.429C632.685 604 632.145 603.712 631.809 603.136L625.761 594.406C625.557 594.106 625.335 593.89 625.095 593.758C624.855 593.626 624.495 593.56 624.015 593.56H621.675V604H617.463V578.08H625.095C626.799 578.08 628.263 578.254 629.487 578.602C630.723 578.95 631.737 579.448 632.529 580.096C633.321 580.732 633.903 581.5 634.275 582.4C634.659 583.3 634.851 584.302 634.851 585.406C634.851 586.306 634.713 587.146 634.437 587.926C634.173 588.706 633.783 589.414 633.267 590.05C632.763 590.686 632.139 591.238 631.395 591.706C630.651 592.174 629.805 592.54 628.857 592.804C629.373 593.116 629.817 593.554 630.189 594.118L637.191 604ZM655.29 600.472V604H640.314V578.08H644.526V600.472H655.29ZM678.109 592.75C678.109 592.102 678.013 591.502 677.821 590.95C677.641 590.386 677.371 589.9 677.011 589.492C676.651 589.072 676.201 588.748 675.661 588.52C675.133 588.28 674.521 588.16 673.825 588.16C672.421 588.16 671.317 588.562 670.513 589.366C669.709 590.17 669.199 591.298 668.983 592.75H678.109ZM668.875 595.126C668.923 596.17 669.085 597.076 669.361 597.844C669.637 598.6 670.003 599.23 670.459 599.734C670.927 600.238 671.479 600.616 672.115 600.868C672.763 601.108 673.483 601.228 674.275 601.228C675.031 601.228 675.685 601.144 676.237 600.976C676.789 600.796 677.269 600.604 677.677 600.4C678.085 600.184 678.433 599.992 678.721 599.824C679.009 599.644 679.273 599.554 679.513 599.554C679.825 599.554 680.065 599.674 680.233 599.914L681.331 601.336C680.875 601.876 680.359 602.332 679.783 602.704C679.207 603.076 678.595 603.382 677.947 603.622C677.299 603.85 676.633 604.012 675.949 604.108C675.265 604.216 674.599 604.27 673.951 604.27C672.679 604.27 671.497 604.06 670.405 603.64C669.325 603.208 668.383 602.578 667.579 601.75C666.787 600.922 666.163 599.896 665.707 598.672C665.263 597.448 665.041 596.038 665.041 594.442C665.041 593.17 665.239 591.982 665.635 590.878C666.043 589.774 666.619 588.814 667.363 587.998C668.119 587.182 669.031 586.54 670.099 586.072C671.179 585.592 672.397 585.352 673.753 585.352C674.881 585.352 675.925 585.538 676.885 585.91C677.845 586.27 678.673 586.804 679.369 587.512C680.065 588.22 680.605 589.09 680.989 590.122C681.385 591.142 681.583 592.306 681.583 593.614C681.583 594.214 681.517 594.616 681.385 594.82C681.253 595.024 681.013 595.126 680.665 595.126H668.875ZM688.81 588.07C689.206 587.662 689.614 587.296 690.034 586.972C690.466 586.636 690.922 586.348 691.402 586.108C691.882 585.868 692.392 585.682 692.932 585.55C693.472 585.418 694.06 585.352 694.696 585.352C695.704 585.352 696.586 585.52 697.342 585.856C698.11 586.192 698.752 586.666 699.268 587.278C699.796 587.89 700.192 588.628 700.456 589.492C700.72 590.344 700.852 591.286 700.852 592.318V604H697V592.318C697 591.082 696.712 590.122 696.136 589.438C695.572 588.754 694.708 588.412 693.544 588.412C692.68 588.412 691.876 588.61 691.132 589.006C690.4 589.402 689.71 589.942 689.062 590.626V604H685.192V585.64H687.532C688.06 585.64 688.396 585.886 688.54 586.378L688.81 588.07ZM718.279 577.36V604H714.409V577.36H718.279ZM732.865 595.972C731.485 596.02 730.321 596.134 729.373 596.314C728.425 596.482 727.657 596.704 727.069 596.98C726.481 597.244 726.055 597.562 725.791 597.934C725.539 598.306 725.413 598.714 725.413 599.158C725.413 599.59 725.479 599.962 725.611 600.274C725.755 600.574 725.947 600.826 726.187 601.03C726.439 601.222 726.727 601.366 727.051 601.462C727.387 601.546 727.753 601.588 728.149 601.588C729.157 601.588 730.021 601.402 730.741 601.03C731.473 600.646 732.181 600.094 732.865 599.374V595.972ZM722.605 588.196C724.681 586.264 727.153 585.298 730.021 585.298C731.077 585.298 732.013 585.472 732.829 585.82C733.657 586.156 734.347 586.636 734.899 587.26C735.463 587.884 735.889 588.628 736.177 589.492C736.477 590.344 736.627 591.292 736.627 592.336V604H734.899C734.527 604 734.245 603.946 734.053 603.838C733.861 603.718 733.699 603.484 733.567 603.136L733.189 601.642C732.721 602.062 732.259 602.44 731.803 602.776C731.347 603.1 730.873 603.376 730.381 603.604C729.901 603.832 729.379 604 728.815 604.108C728.263 604.228 727.651 604.288 726.979 604.288C726.235 604.288 725.539 604.186 724.891 603.982C724.255 603.778 723.703 603.472 723.235 603.064C722.767 602.644 722.395 602.128 722.119 601.516C721.855 600.904 721.723 600.184 721.723 599.356C721.723 598.648 721.909 597.958 722.281 597.286C722.665 596.614 723.289 596.014 724.153 595.486C725.029 594.946 726.175 594.502 727.591 594.154C729.019 593.806 730.777 593.608 732.865 593.56V592.336C732.865 591.016 732.583 590.032 732.019 589.384C731.455 588.736 730.627 588.412 729.535 588.412C728.791 588.412 728.167 588.508 727.663 588.7C727.159 588.88 726.721 589.078 726.349 589.294C725.977 589.51 725.647 589.714 725.359 589.906C725.071 590.086 724.765 590.176 724.441 590.176C724.177 590.176 723.949 590.11 723.757 589.978C723.577 589.834 723.427 589.66 723.307 589.456L722.605 588.196ZM753.996 599.392C754.536 600.088 755.124 600.58 755.76 600.868C756.408 601.144 757.11 601.282 757.866 601.282C759.39 601.282 760.578 600.73 761.43 599.626C762.282 598.522 762.708 596.812 762.708 594.496C762.708 592.384 762.336 590.842 761.592 589.87C760.86 588.898 759.81 588.412 758.442 588.412C757.494 588.412 756.666 588.628 755.958 589.06C755.262 589.48 754.608 590.086 753.996 590.878V599.392ZM753.996 588.07C754.752 587.242 755.598 586.582 756.534 586.09C757.47 585.598 758.538 585.352 759.738 585.352C760.806 585.352 761.766 585.562 762.618 585.982C763.482 586.39 764.214 586.984 764.814 587.764C765.414 588.544 765.876 589.492 766.2 590.608C766.524 591.712 766.686 592.96 766.686 594.352C766.686 595.84 766.5 597.196 766.128 598.42C765.768 599.632 765.246 600.676 764.562 601.552C763.878 602.416 763.05 603.088 762.078 603.568C761.106 604.036 760.02 604.27 758.82 604.27C758.232 604.27 757.698 604.21 757.218 604.09C756.738 603.982 756.294 603.82 755.886 603.604C755.478 603.388 755.1 603.13 754.752 602.83C754.416 602.53 754.092 602.188 753.78 601.804L753.618 603.226C753.558 603.502 753.45 603.7 753.294 603.82C753.138 603.94 752.922 604 752.646 604H750.126V577.36H753.996V588.07ZM780.256 595.972C778.876 596.02 777.712 596.134 776.764 596.314C775.816 596.482 775.048 596.704 774.46 596.98C773.872 597.244 773.446 597.562 773.182 597.934C772.93 598.306 772.804 598.714 772.804 599.158C772.804 599.59 772.87 599.962 773.002 600.274C773.146 600.574 773.338 600.826 773.578 601.03C773.83 601.222 774.118 601.366 774.442 601.462C774.778 601.546 775.144 601.588 775.54 601.588C776.548 601.588 777.412 601.402 778.132 601.03C778.864 600.646 779.572 600.094 780.256 599.374V595.972ZM769.996 588.196C772.072 586.264 774.544 585.298 777.412 585.298C778.468 585.298 779.404 585.472 780.22 585.82C781.048 586.156 781.738 586.636 782.29 587.26C782.854 587.884 783.28 588.628 783.568 589.492C783.868 590.344 784.018 591.292 784.018 592.336V604H782.29C781.918 604 781.636 603.946 781.444 603.838C781.252 603.718 781.09 603.484 780.958 603.136L780.58 601.642C780.112 602.062 779.65 602.44 779.194 602.776C778.738 603.1 778.264 603.376 777.772 603.604C777.292 603.832 776.77 604 776.206 604.108C775.654 604.228 775.042 604.288 774.37 604.288C773.626 604.288 772.93 604.186 772.282 603.982C771.646 603.778 771.094 603.472 770.626 603.064C770.158 602.644 769.786 602.128 769.51 601.516C769.246 600.904 769.114 600.184 769.114 599.356C769.114 598.648 769.3 597.958 769.672 597.286C770.056 596.614 770.68 596.014 771.544 595.486C772.42 594.946 773.566 594.502 774.982 594.154C776.41 593.806 778.168 593.608 780.256 593.56V592.336C780.256 591.016 779.974 590.032 779.41 589.384C778.846 588.736 778.018 588.412 776.926 588.412C776.182 588.412 775.558 588.508 775.054 588.7C774.55 588.88 774.112 589.078 773.74 589.294C773.368 589.51 773.038 589.714 772.75 589.906C772.462 590.086 772.156 590.176 771.832 590.176C771.568 590.176 771.34 590.11 771.148 589.978C770.968 589.834 770.818 589.66 770.698 589.456L769.996 588.196ZM792.205 589.042C792.781 587.878 793.477 586.966 794.293 586.306C795.109 585.634 796.087 585.298 797.227 585.298C797.623 585.298 797.995 585.346 798.343 585.442C798.691 585.526 799.003 585.658 799.279 585.838L799.009 588.754C798.961 588.958 798.883 589.102 798.775 589.186C798.679 589.258 798.547 589.294 798.379 589.294C798.199 589.294 797.941 589.264 797.605 589.204C797.269 589.132 796.915 589.096 796.543 589.096C796.003 589.096 795.523 589.174 795.103 589.33C794.695 589.486 794.323 589.714 793.987 590.014C793.663 590.314 793.375 590.68 793.123 591.112C792.871 591.544 792.637 592.036 792.421 592.588V604H788.551V585.64H790.801C791.209 585.64 791.491 585.718 791.647 585.874C791.803 586.018 791.911 586.276 791.971 586.648L792.205 589.042ZM805.494 589.042C806.07 587.878 806.766 586.966 807.582 586.306C808.398 585.634 809.376 585.298 810.516 585.298C810.912 585.298 811.284 585.346 811.632 585.442C811.98 585.526 812.292 585.658 812.568 585.838L812.298 588.754C812.25 588.958 812.172 589.102 812.064 589.186C811.968 589.258 811.836 589.294 811.668 589.294C811.488 589.294 811.23 589.264 810.894 589.204C810.558 589.132 810.204 589.096 809.832 589.096C809.292 589.096 808.812 589.174 808.392 589.33C807.984 589.486 807.612 589.714 807.276 590.014C806.952 590.314 806.664 590.68 806.412 591.112C806.16 591.544 805.926 592.036 805.71 592.588V604H801.84V585.64H804.09C804.498 585.64 804.78 585.718 804.936 585.874C805.092 586.018 805.2 586.276 805.26 586.648L805.494 589.042ZM824.658 595.972C823.278 596.02 822.114 596.134 821.166 596.314C820.218 596.482 819.45 596.704 818.862 596.98C818.274 597.244 817.848 597.562 817.584 597.934C817.332 598.306 817.206 598.714 817.206 599.158C817.206 599.59 817.272 599.962 817.404 600.274C817.548 600.574 817.74 600.826 817.98 601.03C818.232 601.222 818.52 601.366 818.844 601.462C819.18 601.546 819.546 601.588 819.942 601.588C820.95 601.588 821.814 601.402 822.534 601.03C823.266 600.646 823.974 600.094 824.658 599.374V595.972ZM814.398 588.196C816.474 586.264 818.946 585.298 821.814 585.298C822.87 585.298 823.806 585.472 824.622 585.82C825.45 586.156 826.14 586.636 826.692 587.26C827.256 587.884 827.682 588.628 827.97 589.492C828.27 590.344 828.42 591.292 828.42 592.336V604H826.692C826.32 604 826.038 603.946 825.846 603.838C825.654 603.718 825.492 603.484 825.36 603.136L824.982 601.642C824.514 602.062 824.052 602.44 823.596 602.776C823.14 603.1 822.666 603.376 822.174 603.604C821.694 603.832 821.172 604 820.608 604.108C820.056 604.228 819.444 604.288 818.772 604.288C818.028 604.288 817.332 604.186 816.684 603.982C816.048 603.778 815.496 603.472 815.028 603.064C814.56 602.644 814.188 602.128 813.912 601.516C813.648 600.904 813.516 600.184 813.516 599.356C813.516 598.648 813.702 597.958 814.074 597.286C814.458 596.614 815.082 596.014 815.946 595.486C816.822 594.946 817.968 594.502 819.384 594.154C820.812 593.806 822.57 593.608 824.658 593.56V592.336C824.658 591.016 824.376 590.032 823.812 589.384C823.248 588.736 822.42 588.412 821.328 588.412C820.584 588.412 819.96 588.508 819.456 588.7C818.952 588.88 818.514 589.078 818.142 589.294C817.77 589.51 817.44 589.714 817.152 589.906C816.864 590.086 816.558 590.176 816.234 590.176C815.97 590.176 815.742 590.11 815.55 589.978C815.37 589.834 815.22 589.66 815.1 589.456L814.398 588.196ZM853.637 590.158C853.097 589.462 852.503 588.976 851.855 588.7C851.207 588.424 850.505 588.286 849.749 588.286C848.237 588.286 847.055 588.844 846.203 589.96C845.351 591.064 844.925 592.702 844.925 594.874C844.925 596.002 845.021 596.968 845.213 597.772C845.405 598.564 845.681 599.212 846.041 599.716C846.401 600.22 846.839 600.586 847.355 600.814C847.871 601.042 848.453 601.156 849.101 601.156C850.085 601.156 850.931 600.946 851.639 600.526C852.359 600.094 853.025 599.488 853.637 598.708V590.158ZM857.507 577.36V604H855.167C854.651 604 854.321 603.754 854.177 603.262L853.835 601.264C853.067 602.164 852.191 602.89 851.207 603.442C850.235 603.994 849.101 604.27 847.805 604.27C846.773 604.27 845.837 604.066 844.997 603.658C844.157 603.238 843.437 602.632 842.837 601.84C842.237 601.048 841.769 600.07 841.433 598.906C841.109 597.73 840.947 596.386 840.947 594.874C840.947 593.506 841.127 592.24 841.487 591.076C841.859 589.912 842.387 588.904 843.071 588.052C843.755 587.188 844.583 586.516 845.555 586.036C846.539 585.544 847.637 585.298 848.849 585.298C849.929 585.298 850.847 585.472 851.603 585.82C852.359 586.156 853.037 586.63 853.637 587.242V577.36H857.507ZM874.281 592.75C874.281 592.102 874.185 591.502 873.993 590.95C873.813 590.386 873.543 589.9 873.183 589.492C872.823 589.072 872.373 588.748 871.833 588.52C871.305 588.28 870.693 588.16 869.997 588.16C868.593 588.16 867.489 588.562 866.685 589.366C865.881 590.17 865.371 591.298 865.155 592.75H874.281ZM865.047 595.126C865.095 596.17 865.257 597.076 865.533 597.844C865.809 598.6 866.175 599.23 866.631 599.734C867.099 600.238 867.651 600.616 868.287 600.868C868.935 601.108 869.655 601.228 870.447 601.228C871.203 601.228 871.857 601.144 872.409 600.976C872.961 600.796 873.441 600.604 873.849 600.4C874.257 600.184 874.605 599.992 874.893 599.824C875.181 599.644 875.445 599.554 875.685 599.554C875.997 599.554 876.237 599.674 876.405 599.914L877.503 601.336C877.047 601.876 876.531 602.332 875.955 602.704C875.379 603.076 874.767 603.382 874.119 603.622C873.471 603.85 872.805 604.012 872.121 604.108C871.437 604.216 870.771 604.27 870.123 604.27C868.851 604.27 867.669 604.06 866.577 603.64C865.497 603.208 864.555 602.578 863.751 601.75C862.959 600.922 862.335 599.896 861.879 598.672C861.435 597.448 861.213 596.038 861.213 594.442C861.213 593.17 861.411 591.982 861.807 590.878C862.215 589.774 862.791 588.814 863.535 587.998C864.291 587.182 865.203 586.54 866.271 586.072C867.351 585.592 868.569 585.352 869.925 585.352C871.053 585.352 872.097 585.538 873.057 585.91C874.017 586.27 874.845 586.804 875.541 587.512C876.237 588.22 876.777 589.09 877.161 590.122C877.557 591.142 877.755 592.306 877.755 593.614C877.755 594.214 877.689 594.616 877.557 594.82C877.425 595.024 877.185 595.126 876.837 595.126H865.047ZM902.047 590.158C901.507 589.462 900.913 588.976 900.265 588.7C899.617 588.424 898.915 588.286 898.159 588.286C896.647 588.286 895.465 588.844 894.613 589.96C893.761 591.064 893.335 592.702 893.335 594.874C893.335 596.002 893.431 596.968 893.623 597.772C893.815 598.564 894.091 599.212 894.451 599.716C894.811 600.22 895.249 600.586 895.765 600.814C896.281 601.042 896.863 601.156 897.511 601.156C898.495 601.156 899.341 600.946 900.049 600.526C900.769 600.094 901.435 599.488 902.047 598.708V590.158ZM905.917 577.36V604H903.577C903.061 604 902.731 603.754 902.587 603.262L902.245 601.264C901.477 602.164 900.601 602.89 899.617 603.442C898.645 603.994 897.511 604.27 896.215 604.27C895.183 604.27 894.247 604.066 893.407 603.658C892.567 603.238 891.847 602.632 891.247 601.84C890.647 601.048 890.179 600.07 889.843 598.906C889.519 597.73 889.357 596.386 889.357 594.874C889.357 593.506 889.537 592.24 889.897 591.076C890.269 589.912 890.797 588.904 891.481 588.052C892.165 587.188 892.993 586.516 893.965 586.036C894.949 585.544 896.047 585.298 897.259 585.298C898.339 585.298 899.257 585.472 900.013 585.82C900.769 586.156 901.447 586.63 902.047 587.242V577.36H905.917ZM914.681 585.64V604H910.811V585.64H914.681ZM915.329 580.096C915.329 580.444 915.257 580.774 915.113 581.086C914.981 581.398 914.795 581.674 914.555 581.914C914.315 582.142 914.033 582.328 913.709 582.472C913.397 582.604 913.061 582.67 912.701 582.67C912.353 582.67 912.023 582.604 911.711 582.472C911.411 582.328 911.147 582.142 910.919 581.914C910.691 581.674 910.505 581.398 910.361 581.086C910.229 580.774 910.163 580.444 910.163 580.096C910.163 579.736 910.229 579.4 910.361 579.088C910.505 578.776 910.691 578.506 910.919 578.278C911.147 578.038 911.411 577.852 911.711 577.72C912.023 577.576 912.353 577.504 912.701 577.504C913.061 577.504 913.397 577.576 913.709 577.72C914.033 577.852 914.315 578.038 914.555 578.278C914.795 578.506 914.981 578.776 915.113 579.088C915.257 579.4 915.329 579.736 915.329 580.096ZM923.198 589.042C923.774 587.878 924.47 586.966 925.286 586.306C926.102 585.634 927.08 585.298 928.22 585.298C928.616 585.298 928.988 585.346 929.336 585.442C929.684 585.526 929.996 585.658 930.272 585.838L930.002 588.754C929.954 588.958 929.876 589.102 929.768 589.186C929.672 589.258 929.54 589.294 929.372 589.294C929.192 589.294 928.934 589.264 928.598 589.204C928.262 589.132 927.908 589.096 927.536 589.096C926.996 589.096 926.516 589.174 926.096 589.33C925.688 589.486 925.316 589.714 924.98 590.014C924.656 590.314 924.368 590.68 924.116 591.112C923.864 591.544 923.63 592.036 923.414 592.588V604H919.544V585.64H921.794C922.202 585.64 922.484 585.718 922.64 585.874C922.796 586.018 922.904 586.276 922.964 586.648L923.198 589.042ZM944.242 592.75C944.242 592.102 944.146 591.502 943.954 590.95C943.774 590.386 943.504 589.9 943.144 589.492C942.784 589.072 942.334 588.748 941.794 588.52C941.266 588.28 940.654 588.16 939.958 588.16C938.554 588.16 937.45 588.562 936.646 589.366C935.842 590.17 935.332 591.298 935.116 592.75H944.242ZM935.008 595.126C935.056 596.17 935.218 597.076 935.494 597.844C935.77 598.6 936.136 599.23 936.592 599.734C937.06 600.238 937.612 600.616 938.248 600.868C938.896 601.108 939.616 601.228 940.408 601.228C941.164 601.228 941.818 601.144 942.37 600.976C942.922 600.796 943.402 600.604 943.81 600.4C944.218 600.184 944.566 599.992 944.854 599.824C945.142 599.644 945.406 599.554 945.646 599.554C945.958 599.554 946.198 599.674 946.366 599.914L947.464 601.336C947.008 601.876 946.492 602.332 945.916 602.704C945.34 603.076 944.728 603.382 944.08 603.622C943.432 603.85 942.766 604.012 942.082 604.108C941.398 604.216 940.732 604.27 940.084 604.27C938.812 604.27 937.63 604.06 936.538 603.64C935.458 603.208 934.516 602.578 933.712 601.75C932.92 600.922 932.296 599.896 931.84 598.672C931.396 597.448 931.174 596.038 931.174 594.442C931.174 593.17 931.372 591.982 931.768 590.878C932.176 589.774 932.752 588.814 933.496 587.998C934.252 587.182 935.164 586.54 936.232 586.072C937.312 585.592 938.53 585.352 939.886 585.352C941.014 585.352 942.058 585.538 943.018 585.91C943.978 586.27 944.806 586.804 945.502 587.512C946.198 588.22 946.738 589.09 947.122 590.122C947.518 591.142 947.716 592.306 947.716 593.614C947.716 594.214 947.65 594.616 947.518 594.82C947.386 595.024 947.146 595.126 946.798 595.126H935.008ZM964.303 589.24C964.183 589.396 964.069 589.516 963.961 589.6C963.853 589.684 963.697 589.726 963.493 589.726C963.289 589.726 963.073 589.654 962.845 589.51C962.629 589.366 962.365 589.21 962.053 589.042C961.753 588.862 961.387 588.7 960.955 588.556C960.523 588.412 959.983 588.34 959.335 588.34C958.495 588.34 957.757 588.49 957.121 588.79C956.497 589.09 955.969 589.522 955.537 590.086C955.117 590.638 954.799 591.316 954.583 592.12C954.379 592.912 954.277 593.806 954.277 594.802C954.277 595.834 954.391 596.752 954.619 597.556C954.847 598.36 955.171 599.038 955.591 599.59C956.023 600.142 956.539 600.562 957.139 600.85C957.751 601.138 958.435 601.282 959.191 601.282C959.935 601.282 960.541 601.192 961.009 601.012C961.477 600.832 961.867 600.634 962.179 600.418C962.491 600.202 962.755 600.004 962.971 599.824C963.199 599.644 963.439 599.554 963.691 599.554C964.003 599.554 964.243 599.674 964.411 599.914L965.509 601.336C965.065 601.876 964.573 602.332 964.033 602.704C963.493 603.076 962.923 603.382 962.323 603.622C961.723 603.85 961.099 604.012 960.451 604.108C959.803 604.216 959.149 604.27 958.489 604.27C957.349 604.27 956.281 604.06 955.285 603.64C954.301 603.208 953.437 602.59 952.693 601.786C951.961 600.97 951.379 599.98 950.947 598.816C950.527 597.64 950.317 596.302 950.317 594.802C950.317 593.446 950.509 592.192 950.893 591.04C951.277 589.876 951.835 588.874 952.567 588.034C953.311 587.194 954.229 586.54 955.321 586.072C956.413 585.592 957.673 585.352 959.101 585.352C960.433 585.352 961.603 585.568 962.611 586C963.631 586.432 964.537 587.044 965.329 587.836L964.303 589.24ZM981.283 589.24C981.163 589.396 981.049 589.516 980.941 589.6C980.833 589.684 980.677 589.726 980.473 589.726C980.269 589.726 980.053 589.654 979.825 589.51C979.609 589.366 979.345 589.21 979.033 589.042C978.733 588.862 978.367 588.7 977.935 588.556C977.503 588.412 976.963 588.34 976.315 588.34C975.475 588.34 974.737 588.49 974.101 588.79C973.477 589.09 972.949 589.522 972.517 590.086C972.097 590.638 971.779 591.316 971.563 592.12C971.359 592.912 971.257 593.806 971.257 594.802C971.257 595.834 971.371 596.752 971.599 597.556C971.827 598.36 972.151 599.038 972.571 599.59C973.003 600.142 973.519 600.562 974.119 600.85C974.731 601.138 975.415 601.282 976.171 601.282C976.915 601.282 977.521 601.192 977.989 601.012C978.457 600.832 978.847 600.634 979.159 600.418C979.471 600.202 979.735 600.004 979.951 599.824C980.179 599.644 980.419 599.554 980.671 599.554C980.983 599.554 981.223 599.674 981.391 599.914L982.489 601.336C982.045 601.876 981.553 602.332 981.013 602.704C980.473 603.076 979.903 603.382 979.303 603.622C978.703 603.85 978.079 604.012 977.431 604.108C976.783 604.216 976.129 604.27 975.469 604.27C974.329 604.27 973.261 604.06 972.265 603.64C971.281 603.208 970.417 602.59 969.673 601.786C968.941 600.97 968.359 599.98 967.927 598.816C967.507 597.64 967.297 596.302 967.297 594.802C967.297 593.446 967.489 592.192 967.873 591.04C968.257 589.876 968.815 588.874 969.547 588.034C970.291 587.194 971.209 586.54 972.301 586.072C973.393 585.592 974.653 585.352 976.081 585.352C977.413 585.352 978.583 585.568 979.591 586C980.611 586.432 981.517 587.044 982.309 587.836L981.283 589.24ZM989.634 585.64V604H985.764V585.64H989.634ZM990.282 580.096C990.282 580.444 990.21 580.774 990.066 581.086C989.934 581.398 989.748 581.674 989.508 581.914C989.268 582.142 988.986 582.328 988.662 582.472C988.35 582.604 988.014 582.67 987.654 582.67C987.306 582.67 986.976 582.604 986.664 582.472C986.364 582.328 986.1 582.142 985.872 581.914C985.644 581.674 985.458 581.398 985.314 581.086C985.182 580.774 985.116 580.444 985.116 580.096C985.116 579.736 985.182 579.4 985.314 579.088C985.458 578.776 985.644 578.506 985.872 578.278C986.1 578.038 986.364 577.852 986.664 577.72C986.976 577.576 987.306 577.504 987.654 577.504C988.014 577.504 988.35 577.576 988.662 577.72C988.986 577.852 989.268 578.038 989.508 578.278C989.748 578.506 989.934 578.776 990.066 579.088C990.21 579.4 990.282 579.736 990.282 580.096ZM1002.43 585.352C1003.79 585.352 1005.01 585.574 1006.11 586.018C1007.21 586.462 1008.15 587.092 1008.91 587.908C1009.69 588.724 1010.29 589.714 1010.71 590.878C1011.13 592.042 1011.34 593.35 1011.34 594.802C1011.34 596.254 1011.13 597.562 1010.71 598.726C1010.29 599.89 1009.69 600.886 1008.91 601.714C1008.15 602.53 1007.21 603.16 1006.11 603.604C1005.01 604.048 1003.79 604.27 1002.43 604.27C1001.07 604.27 999.831 604.048 998.727 603.604C997.635 603.16 996.699 602.53 995.919 601.714C995.139 600.886 994.539 599.89 994.119 598.726C993.699 597.562 993.489 596.254 993.489 594.802C993.489 593.35 993.699 592.042 994.119 590.878C994.539 589.714 995.139 588.724 995.919 587.908C996.699 587.092 997.635 586.462 998.727 586.018C999.831 585.574 1001.07 585.352 1002.43 585.352ZM1002.43 601.246C1004.09 601.246 1005.32 600.694 1006.12 599.59C1006.94 598.474 1007.35 596.884 1007.35 594.82C1007.35 592.756 1006.94 591.166 1006.12 590.05C1005.32 588.922 1004.09 588.358 1002.43 588.358C1000.75 588.358 999.507 588.922 998.691 590.05C997.875 591.166 997.467 592.756 997.467 594.82C997.467 596.884 997.875 598.474 998.691 599.59C999.507 600.694 1000.75 601.246 1002.43 601.246ZM1018.68 588.07C1019.08 587.662 1019.49 587.296 1019.91 586.972C1020.34 586.636 1020.79 586.348 1021.27 586.108C1021.75 585.868 1022.26 585.682 1022.8 585.55C1023.34 585.418 1023.93 585.352 1024.57 585.352C1025.58 585.352 1026.46 585.52 1027.21 585.856C1027.98 586.192 1028.62 586.666 1029.14 587.278C1029.67 587.89 1030.06 588.628 1030.33 589.492C1030.59 590.344 1030.72 591.286 1030.72 592.318V604H1026.87V592.318C1026.87 591.082 1026.58 590.122 1026.01 589.438C1025.44 588.754 1024.58 588.412 1023.42 588.412C1022.55 588.412 1021.75 588.61 1021 589.006C1020.27 589.402 1019.58 589.942 1018.93 590.626V604H1015.06V585.64H1017.4C1017.93 585.64 1018.27 585.886 1018.41 586.378L1018.68 588.07Z" fill="#4D4747"/>
<line x1="377.5" y1="468" x2="377.5" y2="562" stroke="#4D4747" stroke-width="3"/>
<path d="M639.47 288.36L638.27 290H645.23L645.55 289.6L649.35 284.4L645.87 279.68L639.47 288.36ZM664.07 288.36L655.27 276.36L663.47 265.28L664.67 263.6H657.71L657.39 264L651.79 271.64L646.19 264L645.87 263.6H638.87L640.11 265.24L648.31 276.36V276.4L651.79 281.12L654.47 284.76L658.03 289.6L658.35 290H665.31L664.07 288.36ZM669.363 263.6V264.64V269.2H692.963V263.6H669.363ZM674.963 278.72H690.603V273.12H674.963L669.363 273.08V284.4V285.44V290H692.963V284.4H674.963V278.72ZM696.98 263.6V264.64V269.2H720.58V263.6H696.98ZM702.58 278.72H718.22V273.12H702.58L696.98 273.08V284.4V285.44V290H720.58V284.4H702.58V278.72ZM739.078 290V273.12H733.478V290H739.078ZM724.598 263.6V269.2H733.478H739.078H748.398V263.6H724.598ZM745.789 288.44L744.949 290H751.989L752.269 289.48L757.989 279.12L754.469 272.8L745.789 288.44ZM774.669 288.44L763.469 268.24L761.149 264.08L760.909 263.52H759.549L759.269 264.08L756.989 268.24L756.709 268.76L760.229 275.12L760.309 275.28L762.909 279.96L768.189 289.48L768.469 290H775.509L774.669 288.44ZM796.069 263.64V273.16H783.909V263.64H778.309V290H783.909V278.8H796.069V290H801.669V263.64H796.069Z" fill="black"/>
</svg>
