<svg id="visual" viewBox="0 0 900 600" width="900" height="600" xmlns="http://www.w3.org/2000/svg" xmlns:xlink="http://www.w3.org/1999/xlink" version="1.1"><g stroke-width="1" stroke-linejoin="bevel"><path d="M484 303L437 232L410 303Z" fill="#00101c" stroke="#00101c"></path><path d="M484 303L523 192L437 232Z" fill="#2f3943" stroke="#2f3943"></path><path d="M531 383L565 307L484 303Z" fill="#00101c" stroke="#00101c"></path><path d="M484 303L565 307L523 192Z" fill="#19242f" stroke="#19242f"></path><path d="M410 303L531 383L484 303Z" fill="#91969b" stroke="#91969b"></path><path d="M272 287L365 405L410 303Z" fill="#00101c" stroke="#00101c"></path><path d="M410 303L365 405L531 383Z" fill="#c6c9cc" stroke="#c6c9cc"></path><path d="M565 307L591 209L523 192Z" fill="#19242f" stroke="#19242f"></path><path d="M278 167L272 287L437 232Z" fill="#777d84" stroke="#777d84"></path><path d="M437 232L272 287L410 303Z" fill="#19242f" stroke="#19242f"></path><path d="M585 64L476 97L523 192Z" fill="#2f3943" stroke="#2f3943"></path><path d="M523 192L476 97L437 232Z" fill="#464e58" stroke="#464e58"></path><path d="M476 97L411 84L437 232Z" fill="#abafb3" stroke="#abafb3"></path><path d="M467 503L596 404L531 383Z" fill="#e2e4e5" stroke="#e2e4e5"></path><path d="M531 383L596 404L565 307Z" fill="#464e58" stroke="#464e58"></path><path d="M565 307L677 293L591 209Z" fill="#e2e4e5" stroke="#e2e4e5"></path><path d="M411 84L278 167L437 232Z" fill="#2f3943" stroke="#2f3943"></path><path d="M175 309L263 389L272 287Z" fill="#c6c9cc" stroke="#c6c9cc"></path><path d="M272 287L263 389L365 405Z" fill="#00101c" stroke="#00101c"></path><path d="M416 529L467 503L365 405Z" fill="#91969b" stroke="#91969b"></path><path d="M365 405L467 503L531 383Z" fill="#19242f" stroke="#19242f"></path><path d="M596 404L677 293L565 307Z" fill="#2f3943" stroke="#2f3943"></path><path d="M263 389L298 471L365 405Z" fill="#777d84" stroke="#777d84"></path><path d="M710 69L585 64L591 209Z" fill="#2f3943" stroke="#2f3943"></path><path d="M591 209L585 64L523 192Z" fill="#e2e4e5" stroke="#e2e4e5"></path><path d="M476 97L426 0L411 84Z" fill="#777d84" stroke="#777d84"></path><path d="M298 471L416 529L365 405Z" fill="#5e656d" stroke="#5e656d"></path><path d="M267 60L238 117L278 167Z" fill="#c6c9cc" stroke="#c6c9cc"></path><path d="M278 167L188 227L272 287Z" fill="#ffffff" stroke="#ffffff"></path><path d="M677 293L704 219L591 209Z" fill="#91969b" stroke="#91969b"></path><path d="M238 117L188 227L278 167Z" fill="#e2e4e5" stroke="#e2e4e5"></path><path d="M263 389L166 433L298 471Z" fill="#2f3943" stroke="#2f3943"></path><path d="M188 227L175 309L272 287Z" fill="#e2e4e5" stroke="#e2e4e5"></path><path d="M527 0L426 0L476 97Z" fill="#abafb3" stroke="#abafb3"></path><path d="M411 84L267 60L278 167Z" fill="#5e656d" stroke="#5e656d"></path><path d="M299 0L267 60L411 84Z" fill="#91969b" stroke="#91969b"></path><path d="M585 64L527 0L476 97Z" fill="#464e58" stroke="#464e58"></path><path d="M673 509L703 410L596 404Z" fill="#abafb3" stroke="#abafb3"></path><path d="M596 404L703 410L677 293Z" fill="#464e58" stroke="#464e58"></path><path d="M677 293L776 308L704 219Z" fill="#abafb3" stroke="#abafb3"></path><path d="M623 515L596 404L467 503Z" fill="#ffffff" stroke="#ffffff"></path><path d="M581 600L623 515L467 503Z" fill="#5e656d" stroke="#5e656d"></path><path d="M585 64L582 0L527 0Z" fill="#777d84" stroke="#777d84"></path><path d="M664 0L582 0L585 64Z" fill="#19242f" stroke="#19242f"></path><path d="M426 0L299 0L411 84Z" fill="#00101c" stroke="#00101c"></path><path d="M175 309L166 433L263 389Z" fill="#464e58" stroke="#464e58"></path><path d="M303 600L428 600L416 529Z" fill="#5e656d" stroke="#5e656d"></path><path d="M303 600L416 529L298 471Z" fill="#2f3943" stroke="#2f3943"></path><path d="M416 529L476 600L467 503Z" fill="#00101c" stroke="#00101c"></path><path d="M668 600L673 509L623 515Z" fill="#464e58" stroke="#464e58"></path><path d="M623 515L673 509L596 404Z" fill="#19242f" stroke="#19242f"></path><path d="M428 600L476 600L416 529Z" fill="#19242f" stroke="#19242f"></path><path d="M814 516L762 374L703 410Z" fill="#c6c9cc" stroke="#c6c9cc"></path><path d="M703 410L762 374L677 293Z" fill="#00101c" stroke="#00101c"></path><path d="M762 374L776 308L677 293Z" fill="#91969b" stroke="#91969b"></path><path d="M704 219L710 69L591 209Z" fill="#e2e4e5" stroke="#e2e4e5"></path><path d="M795 162L710 69L704 219Z" fill="#777d84" stroke="#777d84"></path><path d="M476 600L581 600L467 503Z" fill="#19242f" stroke="#19242f"></path><path d="M238 117L106 196L188 227Z" fill="#2f3943" stroke="#2f3943"></path><path d="M188 227L73 268L175 309Z" fill="#19242f" stroke="#19242f"></path><path d="M175 309L115 396L166 433Z" fill="#c6c9cc" stroke="#c6c9cc"></path><path d="M80 91L106 196L238 117Z" fill="#e2e4e5" stroke="#e2e4e5"></path><path d="M171 0L238 117L267 60Z" fill="#ffffff" stroke="#ffffff"></path><path d="M710 69L664 0L585 64Z" fill="#00101c" stroke="#00101c"></path><path d="M73 268L115 396L175 309Z" fill="#5e656d" stroke="#5e656d"></path><path d="M186 519L298 471L166 433Z" fill="#2f3943" stroke="#2f3943"></path><path d="M186 519L303 600L298 471Z" fill="#e2e4e5" stroke="#e2e4e5"></path><path d="M91 473L186 519L166 433Z" fill="#777d84" stroke="#777d84"></path><path d="M776 308L795 162L704 219Z" fill="#464e58" stroke="#464e58"></path><path d="M710 69L828 0L664 0Z" fill="#464e58" stroke="#464e58"></path><path d="M106 196L73 268L188 227Z" fill="#464e58" stroke="#464e58"></path><path d="M299 0L171 0L267 60Z" fill="#5e656d" stroke="#5e656d"></path><path d="M0 199L0 297L73 268Z" fill="#5e656d" stroke="#5e656d"></path><path d="M673 509L814 516L703 410Z" fill="#00101c" stroke="#00101c"></path><path d="M581 600L668 600L623 515Z" fill="#abafb3" stroke="#abafb3"></path><path d="M125 600L208 600L186 519Z" fill="#91969b" stroke="#91969b"></path><path d="M186 519L208 600L303 600Z" fill="#ffffff" stroke="#ffffff"></path><path d="M0 463L91 473L115 396Z" fill="#c6c9cc" stroke="#c6c9cc"></path><path d="M115 396L91 473L166 433Z" fill="#777d84" stroke="#777d84"></path><path d="M171 0L80 91L238 117Z" fill="#19242f" stroke="#19242f"></path><path d="M900 101L820 60L795 162Z" fill="#ffffff" stroke="#ffffff"></path><path d="M795 162L820 60L710 69Z" fill="#c6c9cc" stroke="#c6c9cc"></path><path d="M171 0L116 0L80 91Z" fill="#ffffff" stroke="#ffffff"></path><path d="M809 600L814 516L673 509Z" fill="#777d84" stroke="#777d84"></path><path d="M762 374L900 307L776 308Z" fill="#c6c9cc" stroke="#c6c9cc"></path><path d="M776 308L900 232L795 162Z" fill="#91969b" stroke="#91969b"></path><path d="M73 268L0 372L115 396Z" fill="#5e656d" stroke="#5e656d"></path><path d="M0 199L73 268L106 196Z" fill="#91969b" stroke="#91969b"></path><path d="M0 67L0 199L80 91Z" fill="#91969b" stroke="#91969b"></path><path d="M80 91L0 199L106 196Z" fill="#19242f" stroke="#19242f"></path><path d="M900 409L900 307L762 374Z" fill="#c6c9cc" stroke="#c6c9cc"></path><path d="M900 307L900 232L776 308Z" fill="#91969b" stroke="#91969b"></path><path d="M91 473L125 600L186 519Z" fill="#e2e4e5" stroke="#e2e4e5"></path><path d="M0 600L125 600L91 473Z" fill="#ffffff" stroke="#ffffff"></path><path d="M0 297L0 372L73 268Z" fill="#e2e4e5" stroke="#e2e4e5"></path><path d="M900 0L828 0L820 60Z" fill="#c6c9cc" stroke="#c6c9cc"></path><path d="M820 60L828 0L710 69Z" fill="#c6c9cc" stroke="#c6c9cc"></path><path d="M814 516L900 409L762 374Z" fill="#e2e4e5" stroke="#e2e4e5"></path><path d="M0 372L0 463L115 396Z" fill="#ffffff" stroke="#ffffff"></path><path d="M668 600L809 600L673 509Z" fill="#5e656d" stroke="#5e656d"></path><path d="M814 516L900 463L900 409Z" fill="#777d84" stroke="#777d84"></path><path d="M900 232L900 101L795 162Z" fill="#5e656d" stroke="#5e656d"></path><path d="M900 600L900 463L814 516Z" fill="#91969b" stroke="#91969b"></path><path d="M0 0L0 67L80 91Z" fill="#ffffff" stroke="#ffffff"></path><path d="M116 0L0 0L80 91Z" fill="#abafb3" stroke="#abafb3"></path><path d="M900 101L900 0L820 60Z" fill="#00101c" stroke="#00101c"></path><path d="M0 463L0 600L91 473Z" fill="#abafb3" stroke="#abafb3"></path><path d="M809 600L900 600L814 516Z" fill="#00101c" stroke="#00101c"></path></g></svg>